<?xml version="1.0" encoding="utf-8"?>
<!-- Generator: Adobe Illustrator 16.0.0, SVG Export Plug-In . SVG Version: 6.00 Build 0)  -->
<!DOCTYPE svg PUBLIC "-//W3C//DTD SVG 1.1//EN" "http://www.w3.org/Graphics/SVG/1.1/DTD/svg11.dtd">
<svg version="1.1"
	 id="For_Vector_xA0_Image_1_" xmlns:svg="http://www.w3.org/2000/svg" xmlns:rdf="http://www.w3.org/1999/02/22-rdf-syntax-ns#" xmlns:dc="http://purl.org/dc/elements/1.1/" xmlns:inkscape="http://www.inkscape.org/namespaces/inkscape" xmlns:sodipodi="http://sodipodi.sourceforge.net/DTD/sodipodi-0.dtd" xmlns:cc="http://creativecommons.org/ns#" inkscape:version="1.0 (4035a4fb49, 2020-05-01)" sodipodi:docname="ISMIR2021_LOGO.svg"
	 xmlns="http://www.w3.org/2000/svg" xmlns:xlink="http://www.w3.org/1999/xlink" x="0px" y="0px" width="576px" height="576px"
	 viewBox="0 0 576 576" enable-background="new 0 0 576 576" xml:space="preserve">
<defs>
	
	<inkscape:path-effect  id="path-effect1185" lpeversion="1" effect="spiro" is_visible="true"></inkscape:path-effect>
	<inkscape:path-effect  id="path-effect1181" lpeversion="1" effect="spiro" is_visible="true"></inkscape:path-effect>
</defs>
<g id="g588_1_" transform="matrix(1.323561,0,0,1.3145885,-58.591435,-315.77634)">
	<g id="g1296" transform="translate(0,221.06613)">
		<path id="path404_1_" sodipodi:nodetypes="ccccc" fill="#60B99B" d="M269.691,261.284
			c-35.652-73.353-74.862-154.432-110.687-228.137c4.317-1.996,8.323-3.85,12.713-5.882
			c31.838,75.569,67.007,158.387,98.704,233.616C270.158,261.001,269.942,261.164,269.691,261.284z"/>
		<path id="path406_1_" sodipodi:nodetypes="ccccc" fill="#9FD09F" d="M291.409,260.004
			c27.872-66.184,58.749-139.112,86.829-205.802c3.832,1.712,7.387,3.298,11.405,5.09c-31.541,64.918-66.142,136.293-97.586,201.013
			C291.791,260.175,291.678,260.135,291.409,260.004L291.409,260.004z"/>
		<path id="path408_1_" sodipodi:nodetypes="ccccc" fill="#B4D8A1" d="M271.152,260.485c-26.16-64.178-54.951-135.31-81.297-199.94
			c3.749-1.471,7.328-2.879,11.274-4.427c22.805,65.932,48.103,138.428,70.784,203.999
			C271.662,260.237,271.413,260.35,271.152,260.485L271.152,260.485z"/>
		<path id="path410_1_" sodipodi:nodetypes="ccccc" fill="#D4E4A3" d="M60.487,341.743c-0.902-3.787-1.713-7.182-2.62-10.988
			c64.237-13.213,138.561-28.738,202.467-41.884c0.107,0.25,0.148,0.337,0.241,0.573C197.501,305.98,123.953,325.104,60.487,341.743
			z"/>
		<path id="path412_1_" sodipodi:nodetypes="ccccc" fill="#DFE8A5" d="M74.745,367.972c-1.315-3.514-2.501-6.683-3.885-10.382
			c59.724-20.634,131.388-45.578,190.758-66.088c0.142,0.244,0.176,0.328,0.322,0.556
			C203.804,315.744,133.35,344.096,74.745,367.972L74.745,367.972z"/>
		<path id="path414_1_" sodipodi:nodetypes="ccccc" fill="#E2E9A3" d="M261.251,290.837
			c-59.505,19.802-130.117,43.027-190.006,62.956c-1.104-3.561-2.095-6.765-3.245-10.479
			c60.812-16.651,132.519-36.409,192.997-52.968C261.089,290.519,261.067,290.487,261.251,290.837L261.251,290.837z"/>
		<path id="path416_1_" sodipodi:nodetypes="ccccc" fill="#EBECA3" d="M292.869,260.708c27.166-54.313,57.523-114.449,84.865-169.11
			c3.254,1.733,6.213,3.31,9.545,5.082c-30.259,53.063-63.782,111.536-93.884,164.32
			C293.142,260.86,293.122,260.849,292.869,260.708L292.869,260.708z"/>
		<path id="path418_1_" sodipodi:nodetypes="ccccc" fill="#F0EEA2" d="M297.029,263.571
			c35.949-46.296,77.268-98.776,113.482-145.413c2.693,2.173,5.302,4.279,8.194,6.61c-38.657,44.552-82.605,94.978-121.099,139.341
			C297.386,263.889,297.251,263.791,297.029,263.571z"/>
		<path id="path420_1_" sodipodi:nodetypes="ccccc" fill="#EFEDA0" d="M262.622,293.124
			c-52.975,25.724-118.723,57.413-172.091,83.332c-1.425-3.132-2.773-6.084-4.363-9.574
			c54.591-22.919,121.799-51.409,176.171-74.235C262.421,292.819,262.515,292.941,262.622,293.124z"/>
		<path id="path422_1_" sodipodi:nodetypes="ccccc" fill="#EEED9F" d="M349.631,86.631c3.48,1.305,6.505,2.441,9.815,3.682
			c-22.316,54.678-46.668,115.058-68.827,169.349c-0.267-0.095-0.45-0.178-0.716-0.273
			C309.034,204.053,330.273,142.621,349.631,86.631L349.631,86.631z"/>
		<path id="path424_1_" sodipodi:nodetypes="ccccc" fill="#ECE994" d="M432.275,135.824c2.385,2.498,4.526,4.733,6.986,7.305
			c-41.884,37.143-97.828,86.387-139.448,123.294c-0.204-0.26-0.252-0.327-0.499-0.587
			C338.859,226.755,392.492,175.138,432.275,135.824z"/>
		<path id="path426_1_" sodipodi:nodetypes="ccccc" fill="#E9E88E" d="M392.814,119.632c2.819,2.051,5.345,3.889,8.062,5.861
			c-33.295,43.858-71.443,93.954-104.512,137.517c-0.249-0.189-0.416-0.337-0.682-0.524
			C326.368,217.111,362.019,165.168,392.814,119.632z"/>
		<path id="path428_1_" sodipodi:nodetypes="ccccc" fill="#ECE88F" d="M298.185,264.621
			c36.235-40.871,78.991-88.105,115.395-129.164c2.459,2.322,4.732,4.468,7.259,6.851c-38.629,39.031-83.705,84.087-122.1,122.885
			C298.506,264.957,298.38,264.844,298.185,264.621z"/>
		<path id="path430_1_" sodipodi:nodetypes="ccccc" fill="#EAE68B" d="M288.409,258.892c14.72-53.721,29.975-110.2,44.8-164.315
			c3.26,0.901,6.115,1.691,9.497,2.629c-17.779,53.268-35.989,108.962-53.655,161.89
			C288.836,259.032,288.624,258.959,288.409,258.892L288.409,258.892z"/>
		<path id="path432_1_" sodipodi:nodetypes="ccccc" fill="#E9E589" d="M294.175,261.466c27.412-46.869,58.314-98.751,85.916-145.946
			c2.856,1.74,5.481,3.338,8.36,5.092c-30.21,45.719-63.777,95.873-93.733,141.213C294.42,261.598,294.411,261.625,294.175,261.466
			L294.175,261.466z"/>
		<path id="path434_1_" sodipodi:nodetypes="cccccc" fill="#E6E483" d="M258.717,281.009
			c-52.46-7.194-115.523-15.695-168.401-22.947c0.55-3.269,1.042-6.16,1.593-9.443c52.374,10.139,114.808,21.754,166.787,31.82
			C258.71,280.606,258.706,280.733,258.717,281.009L258.717,281.009z"/>
		<path id="path436_1_" sodipodi:nodetypes="ccccc" fill="#E6E17D" d="M258.846,278.032c-50.2-13.712-126.194-36.082-176.955-49.95
			c0.942-3.086,1.798-5.881,2.758-9.024c49.773,16.584,124.891,41.89,174.272,58.342
			C258.887,277.617,258.886,277.724,258.846,278.032z"/>
		<path id="path438_1_" sodipodi:nodetypes="ccccc" fill="#E5E17D" d="M269.803,96.802c3.148,51.943,6.702,112.352,9.652,161.253
			l0.454-0.039l-0.471-161.215h-9.635V96.802z"/>
		<path id="path440_1_" sodipodi:nodetypes="ccccc" fill="#E7E27F" d="M259.975,273.133
			c-46.381-23.171-116.489-57.984-163.204-81.323c1.503-2.841,2.889-5.467,4.465-8.449c45.323,25.868,113.943,63.349,159.005,89.067
			C260.151,272.65,260.08,272.84,259.975,273.133z"/>
		<path id="path442_1_" sodipodi:nodetypes="ccccc" fill="#E5E17C" d="M301.245,268.368c40.415-30.691,96.562-72.316,137.424-103.35
			c1.814,2.504,3.526,4.868,5.52,7.623c-42.44,28.65-100.351,68.046-142.476,96.484
			C301.563,268.872,301.423,268.646,301.245,268.368z"/>
		<path id="path444_1_" sodipodi:nodetypes="ccccsc" fill="#DFDC69" d="M94.77,273.889v9.516l164.142,0.177l-0.052-0.461
			C208.767,280.171,145.921,276.96,94.77,273.889L94.77,273.889z"/>
		<path id="path446_1_" sodipodi:nodetypes="ccccc" fill="#E3E075" d="M306.322,100.885c3.3,0.531,5.888,0.946,9.142,1.469
			c-9.694,50.107-20.158,105.981-29.814,155.906c-0.285-0.043-0.562-0.076-0.851-0.126
			C291.688,207.829,299.383,151.578,306.322,100.885z"/>
		<path id="path448_1_" fill="#E3E075" d="M281.862,101.548L281.04,258.01l0.638-0.015c2.921-47.868,6.601-107.061,9.598-156.449
			L281.862,101.548z M280.987,269.264h-0.006v0.107C280.982,269.339,280.984,269.296,280.987,269.264z"/>
		<path id="path450_1_" sodipodi:nodetypes="ccccc" fill="#E2DF75" d="M261.305,270.098
			c-41.19-27.835-104.306-70.374-145.802-98.414c1.771-2.506,3.413-4.827,5.28-7.467c39.891,30.281,101.148,75.267,140.818,105.38
			C261.487,269.769,261.467,269.823,261.305,270.098z"/>
		<path id="path452_1_" sodipodi:nodetypes="ccccc" fill="#E2DF73" d="M282.935,257.973c3.553-50.267,7.465-104.125,11.064-155.054
			c2.959,0.23,5.745,0.445,9.082,0.703c-6.386,50.504-13.084,104.23-19.426,154.39L282.935,257.973z"/>
		<path id="path454_1_" sodipodi:nodetypes="ccccc" fill="#DEDC68" d="M304.077,274.672
			c46.056-18.789,112.233-45.233,158.547-64.127c1.09,2.851,2.064,5.394,3.234,8.456c-47.332,16.362-114.549,40.259-161.557,56.508
			C304.219,275.215,304.181,274.955,304.077,274.672z"/>
		<path id="path456_1_" sodipodi:nodetypes="ccccc" fill="#E2DD6F" d="M114.593,186.757c1.773-2.829,3.225-5.149,4.848-7.732
			c41.351,27.317,100.311,64.733,141.442,91.905c-0.09,0.205-0.131,0.311-0.266,0.587
			C218.094,246.708,157.556,211.819,114.593,186.757z"/>
		<path id="path458_1_" sodipodi:nodetypes="ccccc" fill="#E2E073" d="M259.082,284.624l-159.758,1.193v9.216
			c49.568-2.986,111.935-7.084,159.838-10.003L259.082,284.624z"/>
		<path id="path460_1_" sodipodi:nodetypes="ccccc" fill="#DEDC68" d="M454.599,199.91c1.291,2.853,2.412,5.327,3.743,8.262
			c-45.29,19.001-109.444,46.919-154.448,65.801c-0.1-0.29-0.159-0.514-0.286-0.802C347.408,251.871,410.264,221.47,454.599,199.91
			L454.599,199.91z"/>
		<path id="path462_1_" sodipodi:nodetypes="ccccc" fill="#E0DE6D" d="M235.693,111.34c3.066-0.779,5.693-1.447,8.692-2.208
			c9.951,48.737,21.035,101.332,30.916,149.72c-0.232,0.074-0.33,0.092-0.573,0.166C262.193,211.297,248.309,159.372,235.693,111.34
			L235.693,111.34z"/>
		<path id="path464_1_" sodipodi:nodetypes="ccccc" fill="#E6E385" d="M272.809,259.716
			c-15.675-46.909-32.397-97.185-48.234-144.578c2.903-0.878,5.577-1.691,8.548-2.59c13.145,48.046,27.283,99.226,40.331,146.92
			C273.237,259.542,273.048,259.622,272.809,259.716L272.809,259.716z"/>
		<path id="path466_1_" sodipodi:nodetypes="ccccc" fill="#E2DC6C" d="M259.078,276.494
			c-45.621-15.715-117.04-42.069-163.193-57.967c1.01-2.815,1.947-5.428,3.009-8.391c45.197,18.408,115.498,47.443,160.311,65.69
			C259.143,276.143,259.132,276.231,259.078,276.494L259.078,276.494z"/>
		<path id="path468_1_" sodipodi:nodetypes="ccccc" fill="#DFDD6B" d="M316.793,110.158c3.012,0.679,5.563,1.255,8.681,1.957
			c-12.522,47.716-25.682,98.971-38.151,146.484c-0.242-0.055-0.486-0.111-0.73-0.165
			C296.4,210.408,306.896,158.635,316.793,110.158L316.793,110.158z"/>
		<path id="path470_1_" sodipodi:nodetypes="ccccc" fill="#DFDC69" d="M258.777,282.349c-48.428-3.425-105.317-7.204-154.164-10.653
			c0.359-3.16,0.661-5.839,0.994-8.779c48.442,6.133,104.994,12.814,153.134,18.907
			C258.762,282.129,258.759,282.088,258.777,282.349L258.777,282.349z"/>
		<path id="path472_1_" sodipodi:nodetypes="ccccc" fill="#E1DC68" d="M277.674,258.309c-6.099-48.175-12.525-100.18-18.684-148.811
			c2.796-0.329,5.471-0.645,8.762-1.031c3.452,48.853,7.19,101.183,10.62,149.729C278.373,258.196,277.933,258.257,277.674,258.309z
			"/>
		<path id="path474_1_" sodipodi:nodetypes="ccccc" fill="#DFDD6B" d="M262.016,268.862c-37.419-28.967-91.178-70.16-128.889-99.354
			c1.921-2.355,3.624-4.442,5.606-6.87c36.026,31.237,87.863,74.7,123.624,105.708C262.176,268.609,262.204,268.57,262.016,268.862z
			"/>
		<path id="path476_1_" sodipodi:nodetypes="ccccc" fill="#E1DC6A" d="M426.113,383.31c-1.809,2.558-3.319,4.693-5.122,7.243
			c-38.453-29.236-85.151-64.455-123.413-93.546c0.19-0.186,0.218-0.218,0.37-0.352C337.729,323.505,386.002,356.239,426.113,383.31
			z"/>
		<path id="path478_1_" sodipodi:nodetypes="ccccc" fill="#DEDC68" d="M442.248,193.293c1.471,2.703,2.658,4.884,4.153,7.632
			c-42.028,20.996-101.211,50.528-143.08,71.443c-0.135-0.311-0.225-0.529-0.356-0.844
			C343.521,248.439,401.261,216.63,442.248,193.293L442.248,193.293z"/>
		<path id="path480_1_" sodipodi:nodetypes="ccccc" fill="#E0DB69" d="M247.713,112.034c3.009-0.518,5.564-0.959,8.665-1.492
			c6.49,47.434,13.908,100.826,20.356,147.946c-0.171,0.049-0.11,0.037-0.393,0.117
			C267.315,212.037,256.861,159.228,247.713,112.034L247.713,112.034z"/>
		<path id="path482_1_" sodipodi:nodetypes="ccccc" fill="#DEDC68" d="M302.225,270.029c39.568-26.15,95.312-61.96,135.153-88.293
			c1.569,2.571,2.976,4.883,4.579,7.511c-41.248,24.055-98.426,57.598-139.37,81.471
			C302.465,270.486,302.365,270.258,302.225,270.029L302.225,270.029z"/>
		<path id="path486_1_" sodipodi:nodetypes="ccccc" fill="#DDDA63" d="M260.006,288.025
			c-45.707,8.862-103.157,20.068-149.193,28.994c-0.549-2.918-1.004-5.326-1.599-8.498c46.435-6.374,104.333-14.883,150.555-21.227
			C259.871,287.622,259.919,287.73,260.006,288.025z"/>
		<path id="path488_1_" sodipodi:nodetypes="ccccc" fill="#DEDB66" d="M258.717,279.681c-46.225-9.446-101.04-20.656-147.667-30.187
			c0.647-2.778,1.226-5.276,1.946-8.368c45.933,12.073,100.067,26.027,145.75,38.029
			C258.733,279.355,258.731,279.442,258.717,279.681L258.717,279.681z"/>
		<path id="path490_1_" sodipodi:nodetypes="ccccc" fill="#DEDC68" d="M443.77,230.664c0.84,2.744,1.603,5.22,2.518,8.209
			c-45.132,12.337-96.784,25.862-141.694,38.139c-0.043-0.297-0.086-0.461-0.14-0.744
			C348.557,261.534,399.318,245.51,443.77,230.664L443.77,230.664z"/>
		<path id="path492_1_" sodipodi:nodetypes="ccccc" fill="#DDDA61" d="M259.491,286.352
			c-46.473,5.886-102.123,13.354-149.037,19.297c-0.243-2.925-0.463-5.582-0.709-8.555c47.144-3.322,102.887-7.903,149.617-11.195
			C259.421,286.118,259.441,286.176,259.491,286.352L259.491,286.352z"/>
		<path id="path494_1_" sodipodi:nodetypes="ccccc" fill="#DEDA65" d="M290.53,301.417c22.962,40.159,52.125,92.598,75.269,133.077
			c-2.633,1.416-5.018,2.697-7.624,4.096c-20.792-41.617-47.567-95.592-68.237-136.958
			C290.218,301.54,290.308,301.514,290.53,301.417L290.53,301.417z"/>
		<path id="path496_1_" sodipodi:nodetypes="ccccc" fill="#DDD961" d="M286.819,302.564c14.878,44.532,32.558,99.366,47.539,144.201
			c-2.834,0.838-5.29,1.566-8.163,2.416c-12.497-45.671-27.579-101.279-39.953-146.496
			C286.531,302.622,286.597,302.589,286.819,302.564L286.819,302.564z"/>
		<path id="path498_1_" sodipodi:nodetypes="ccccc" fill="#DCD95E" d="M259.424,274.944
			c-41.558-17.413-100.898-42.651-142.805-60.212c1.239-2.692,2.306-5.009,3.566-7.745c40.82,19.855,98.942,47.452,139.456,67.158
			C259.538,274.496,259.5,274.625,259.424,274.944z"/>
		<path id="path500_1_" sodipodi:nodetypes="ccccc" fill="#DED960" d="M296.981,297.495c35.342,27.4,81.514,63.478,117.166,91.118
			c-1.766,2.177-3.389,4.179-5.297,6.528c-33.985-29.475-78.511-67.928-112.326-97.257
			C296.764,297.669,296.795,297.682,296.981,297.495L296.981,297.495z"/>
		<path id="path502_1_" sodipodi:nodetypes="ccccc" fill="#DCD85D" d="M322.928,447.121c-2.799,0.661-5.299,1.257-8.188,1.939
			c-9.204-45.079-20.683-101.478-29.803-146.163c0.25-0.043,0.323-0.051,0.547-0.082C297.081,346.921,311.23,402.65,322.928,447.121
			L322.928,447.121z"/>
		<path id="path504_1_" sodipodi:nodetypes="ccccc" fill="#DCD85D" d="M296.018,298.315c33.033,29.245,77.051,68.697,110.37,98.19
			c-1.933,2.07-3.683,3.937-5.712,6.111c-31.619-31.26-73.844-72.869-105.231-103.899
			C295.791,298.46,295.789,298.469,296.018,298.315L296.018,298.315z"/>
		<path id="path506_1_" sodipodi:nodetypes="ccccc" fill="#DCD759" d="M291.76,300.864c24.5,37.008,55.545,85.247,80.346,122.709
			c-2.251,1.469-4.396,2.872-7.006,4.575c-22.554-38.617-51.313-88.566-73.798-127.061
			C291.455,301.013,291.613,300.959,291.76,300.864z"/>
		<path id="path508_1_" sodipodi:nodetypes="ccccc" fill="#DCD85B" d="M353.46,435.094c-2.596,1.141-4.937,2.174-7.629,3.355
			c-17.27-41.115-39.966-95.614-57.094-136.397c0.225-0.061,0.245-0.059,0.533-0.187
			C308.642,341.645,333.909,394.936,353.46,435.094L353.46,435.094z"/>
		<path id="path510_1_" sodipodi:nodetypes="ccccc" fill="#D9D758" d="M293.843,299.783c28.505,32.797,66.236,76.894,94.959,109.944
			c-2.109,1.774-4.084,3.436-6.379,5.366c-26.813-34.607-62.481-80.62-89.118-115.001
			C293.606,299.899,293.574,299.942,293.843,299.783L293.843,299.783z"/>
		<path id="path512_1_" sodipodi:nodetypes="ccccc" fill="#DBD75A" d="M380.318,416.512c-2.253,1.661-4.241,3.127-6.643,4.895
			c-24.401-36.14-57.125-84.754-81.432-120.756c0.297-0.143,0.195-0.092,0.452-0.232
			C318.921,334.941,353.902,381.742,380.318,416.512z"/>
		<path id="path514_1_" sodipodi:nodetypes="ccccc" fill="#DAD453" d="M341.58,434.873c-2.61,0.949-4.889,1.78-7.572,2.758
			c-14.07-40.755-32.604-94.73-46.578-135.204c0.302-0.085,0.41-0.107,0.565-0.163C304.193,341.902,325.239,394.883,341.58,434.873z
			"/>
		<path id="path516_1_" sodipodi:nodetypes="ccccc" fill="#D8D450" d="M298.906,295.654c36.954,21.552,83.712,48.94,120.937,70.654
			c-1.432,2.361-2.7,4.445-4.184,6.888c-36-23.788-81.571-53.369-117.272-76.962C298.591,295.996,298.733,295.881,298.906,295.654z"
			/>
		<path id="path518_1_" sodipodi:nodetypes="ccccc" fill="#D7D34F" d="M141.492,363.474c-1.318-2.422-2.441-4.49-3.82-7.026
			c37.429-18.686,88.13-44.074,125.417-62.689c0.198,0.264,0.188,0.257,0.274,0.37C227.295,314.734,177.998,342.622,141.492,363.474
			L141.492,363.474z"/>
		<path id="path520_1_" sodipodi:nodetypes="ccccc" fill="#D8D450" d="M159.321,389.216c-1.843-2.249-3.316-4.049-5.032-6.149
			c33.249-25.731,78.294-60.885,111.323-86.449c0.242,0.25,0.236,0.241,0.465,0.446C234.57,324.37,191.205,361.586,159.321,389.216
			L159.321,389.216z"/>
		<path id="path522_1_" sodipodi:nodetypes="ccccc" fill="#D7D14B" d="M149.673,370.607c-1.42-2.307-2.643-4.288-4.114-6.672
			c35.816-20.882,82.752-48.319,118.38-69.089c0.16,0.183,0.19,0.221,0.342,0.398C229.975,317.919,184.476,347.602,149.673,370.607
			L149.673,370.607z"/>
		<path id="path524_1_" sodipodi:nodetypes="ccccc" fill="#D7D14A" d="M265.112,296.135
			c-33.028,25.113-75.736,57.187-109.113,82.565c-1.525-2.073-2.893-3.931-4.608-6.261c34.668-23.431,78.883-53.443,113.336-76.732
			C264.893,295.915,264.938,295.958,265.112,296.135z"/>
		<path id="path526_1_" sodipodi:nodetypes="ccccc" fill="#DDD96C" d="M169.144,394.336c-1.863-1.989-3.463-3.695-5.35-5.705
			c30.302-26.794,72.711-64.47,102.828-91.101c0.135,0.134,0.273,0.236,0.499,0.435
			C238.601,326.196,197.999,365.771,169.144,394.336L169.144,394.336z"/>
		<path id="path528_1_" sodipodi:nodetypes="ccccc" fill="#D1D03D" d="M300.322,267.055c28.729-24.96,80.904-68.326,109.906-93.523
			c1.63,1.932,3.044,3.608,4.758,5.637c-30.288,23.483-84.124,65.101-114.243,88.453
			C300.555,267.37,300.507,267.296,300.322,267.055z"/>
		<path id="path530_1_" sodipodi:nodetypes="ccccc" fill="#D4CB3B" d="M301.71,291.916c35.622,12.281,81.527,28.529,117.443,40.913
			c-0.88,2.365-1.605,4.298-2.509,6.718c-35.126-14.334-80.429-32.746-115.329-46.991
			C301.486,292.277,301.565,292.154,301.71,291.916z"/>
		<path id="path532_1_" sodipodi:nodetypes="ccccc" fill="#D5C93B" d="M168.806,173.2c-1.851,2.051-4.385,4.74-5.962,6.487
			c25.575,22.591,80.886,71.069,100.018,87.902l0.277-0.374C244.503,248.577,192.081,197.2,168.806,173.2L168.806,173.2z"/>
		<path id="path534_1_" sodipodi:nodetypes="ccccc" fill="#D6C73B" d="M304.546,284.276l-0.086,0.498
			c37.08,2.396,83.046,5.888,119.365,8.127v-7.236L304.546,284.276z"/>
		<path id="path536_1_" sodipodi:nodetypes="ccccc" fill="#D8BF39" d="M304.847,281.538c34.964-4.447,75.957-9.195,111.451-13.707
			c0.325,2.214,0.635,4.312,0.999,6.79c-35.714,2.468-77.204,5.215-112.491,7.653C304.824,281.999,304.824,281.793,304.847,281.538
			L304.847,281.538z"/>
		<path id="path538_1_" sodipodi:nodetypes="ccccc" fill="#DBB936" d="M414.591,276.85c-34.116,2.102-76.375,4.203-109.867,6.207
			l-0.052,0.416l109.918-0.024V276.85z"/>
		<path id="path540_1_" sodipodi:nodetypes="ccccc" fill="#DABE38" d="M302.513,290.461c33.58,9.145,76.078,21.274,110.094,30.536
			c-0.685,2.193-1.289,4.133-2.029,6.503c-33.323-11.124-75.38-25.37-108.398-36.39C302.303,290.846,302.368,290.73,302.513,290.461
			z"/>
		<path id="path542_1_" sodipodi:nodetypes="ccccc" fill="#DCBC39" d="M303.21,288.924c33.707,6.91,75.076,16.031,109.185,23.02
			c-0.561,2.239-1.05,4.178-1.62,6.435c-33.615-8.867-74.584-20.022-107.85-28.796C303.049,289.31,303.096,289.184,303.21,288.924z"
			/>
		<path id="path544_1_" sodipodi:nodetypes="ccccc" fill="#DDBB37" d="M409.323,251.167c0.573,2.469,0.978,4.231,1.49,6.454
			c-33.447,6.825-72.768,14.132-106.028,20.922c-0.021-0.247-0.028-0.374-0.074-0.64
			C337.451,269.26,376.136,259.924,409.323,251.167z"/>
		<path id="path546_1_" sodipodi:nodetypes="ccccc" fill="#DCB936" d="M303.774,287.389c34.081,4.624,73.471,10.758,107.913,15.432
			c-0.402,2.224-0.74,4.11-1.169,6.484c-34.035-6.61-73.224-14.672-106.979-21.231C303.616,287.84,303.694,287.597,303.774,287.389z
			"/>
		<path id="path548_1_" sodipodi:nodetypes="ccccc" fill="#DBBA37" d="M403.12,336.442c-1.006,2.126-1.787,3.769-2.776,5.858
			c-29.826-14.492-70.294-34.098-99.898-48.482c0.198-0.275,0.268-0.349,0.451-0.62C331.22,305.914,372.367,323.544,403.12,336.442
			L403.12,336.442z"/>
		<path id="path550_1_" sodipodi:nodetypes="ccccc" fill="#DCB936" d="M412.431,294.33c-0.308,2.38-0.538,4.175-0.83,6.426
			c-33.69-4.288-74.023-10.075-107.534-14.34c0.079-0.293,0.126-0.455,0.186-0.694C337.89,288.091,378.222,291.92,412.431,294.33
			L412.431,294.33z"/>
		<path id="path552_1_" sodipodi:nodetypes="ccccc" fill="#DDBB37" d="M408.015,260.25c0.407,2.347,0.715,4.138,1.118,6.481
			c-33.418,4.521-70.964,9.25-104.259,13.755c-0.006-0.214-0.004-0.415-0.008-0.628C337.705,273.441,374.692,266.762,408.015,260.25
			L408.015,260.25z"/>
		<path id="path554_1_" sodipodi:nodetypes="ccccc" fill="#DEB336" d="M394.078,341.542c-0.978,1.906-1.805,3.518-2.896,5.641
			c-26.763-15.299-65.089-37.023-91.657-52.207c0.21-0.254,0.28-0.327,0.476-0.599C327.364,307.982,366.479,327.817,394.078,341.542
			z"/>
		<path id="path556_1_" sodipodi:nodetypes="ccccc" fill="#E5A631" d="M303.33,409.893c-2.211,0.37-3.742,0.625-5.771,0.961
			c-4.029-29.695-9.844-78.402-13.84-107.828c0.248-0.027,0.286-0.024,0.441-0.043C289.841,332.085,297.577,380.397,303.33,409.893
			L303.33,409.893z"/>
		<path id="path558_1_" sodipodi:nodetypes="ccccc" fill="#E5A631" d="M294.811,409.014c-1.964,0.279-3.601,0.511-5.765,0.82
			c-2.008-28.996-4.507-78.077-6.494-106.741c0.202-0.01,0.21-0.003,0.432-0.019C286.625,331.503,291.133,380.283,294.811,409.014
			L294.811,409.014z"/>
		<path id="path560_1_" sodipodi:nodetypes="ccccc" fill="#E3A631" d="M281.494,303.102l-0.151,105.54
			c2.099-0.208,3.636-0.364,5.464-0.547c-1.702-27.287-3.216-76.717-4.894-104.994H281.494z"/>
		<path id="path562_1_" sodipodi:nodetypes="ccccc" fill="#E69E30" d="M280.36,303.056c-1.86,29.177-5.599,77.598-7.252,104.215
			c1.922,0.204,3.336,0.357,5.477,0.584l2.203-104.771C280.664,303.077,280.566,303.068,280.36,303.056L280.36,303.056z"/>
		<path id="path564_1_" sodipodi:nodetypes="ccccc" fill="#EA9C30" d="M279.392,302.984c-1.852,26.863-6.739,76.427-8.614,103.64
			c-2.026-0.3-3.542-0.529-5.498-0.822c3.442-26.877,10.201-76.216,13.617-102.894C279.166,302.946,279.122,302.947,279.392,302.984
			z"/>
		<path id="path566_1_" sodipodi:nodetypes="ccccc" fill="#EA9C30" d="M262.852,405.999c-2.047-0.388-3.556-0.677-5.414-1.03
			c5.302-27.123,14.715-75.441,19.966-102.293c0.221,0.033,0.243,0.051,0.423,0.077
			C274.167,329.817,266.586,378.372,262.852,405.999L262.852,405.999z"/>
		<path id="path568_1_" sodipodi:nodetypes="ccccc" fill="#EA9C30" d="M276.595,302.515c-5.257,25.971-16.065,75.569-21.405,101.946
			c-1.767-0.376-3.248-0.691-5.377-1.143c6.851-25.926,19.526-75.205,26.323-100.917
			C276.398,302.461,276.332,302.459,276.595,302.515z"/>
		<path id="path570_1_" sodipodi:nodetypes="ccccc" fill="#EA9C30" d="M250.052,394.926c-1.75-0.544-3.099-0.961-4.889-1.514
			c7.893-23.485,22.025-68.088,29.833-91.328c0.246,0.074,0.205,0.077,0.452,0.152C269.02,325.899,256.553,371.001,250.052,394.926z
			"/>
		<path id="path572_1_" sodipodi:nodetypes="ccccc" fill="#F67927" d="M263.822,266.333c-13.848-13.435-53.536-54.811-67.683-68.536
			c1.88-1.781,2.235-1.701,3.304-2.711c12.99,14.767,51.922,56.34,64.717,70.885C264.028,266.094,263.979,266.147,263.822,266.333z"
			/>
		<path id="path574_1_" sodipodi:nodetypes="ccccc" fill="#F97825" d="M221.657,188.207c8.548,14.769,37.787,59.863,46.169,74.342
			c-0.267,0.193-0.257,0.19-0.485,0.363c-9.244-13.877-39.681-58.23-49.143-72.434C219.331,189.732,220.348,189.066,221.657,188.207
			z"/>
		<path id="path576_1_" sodipodi:nodetypes="cccccc" fill="#EC7326" d="M258.135,254.618c-8.053-10.69-33.74-41.615-41.925-52.48
			c1.022-0.751,2.916-1.892,4.02-2.704c17.403,24.836,30.324,41.689,46.249,64.198c-0.161,0.123-0.187,0.157-0.342,0.276
			C264.526,261.972,259.67,256.564,258.135,254.618L258.135,254.618z"/>
		<path id="path578_1_" sodipodi:nodetypes="ccccc" fill="#E27127" d="M265.278,264.742c-0.186,0.18-0.195,0.205-0.387,0.4
			c-10.177-11.687-47.386-52.72-58.161-64.785c1.001-0.867,1.755-1.519,2.797-2.423
			C220.221,212.026,256.061,253.089,265.278,264.742z"/>
		<path id="path580_1_" sodipodi:nodetypes="cccccc" fill="#E26F24" d="M268.586,261.996c-7.421-12.863-15.799-26.96-23.304-39.774
			c-0.448-0.764-18.006-31.541-18.272-32.143c1.254-0.733,1.91-1.117,3.196-1.817c6.89,13.914,32.049,59.408,38.956,73.355
			C269,261.736,268.783,261.865,268.586,261.996L268.586,261.996z"/>
		<path id="path582_1_" sodipodi:nodetypes="ccccc" fill="#E99D31" d="M273.951,301.76c0.19,0.056,0.242,0.088,0.391,0.129
			c-4.842,14.232-18.845,53.363-23.757,67.795c-1.249-0.544-2.167-0.942-3.217-1.401
			C252.405,355.496,268.725,313.769,273.951,301.76z"/>
		<path id="path584_1_" sodipodi:nodetypes="ccccc" fill="#EC922B" d="M250.706,355.14c-1.171-0.559-1.524-0.63-2.305-1.14
			c5.095-10.194,19.605-42.984,24.268-52.726c0.236,0.097,0.319,0.12,0.454,0.183C270.352,307.933,253.657,348.069,250.706,355.14z"
			/>
		<path id="path1443_1_" sodipodi:nodetypes="ccccc" fill="#DFDB66" d="M403.231,408.963c-2.082,2.257-3.843,4.169-5.977,6.487
			c-31.069-35.096-72.128-81.268-102.876-115.998c0.291-0.19,0.336-0.221,0.491-0.343
			C327.42,331.959,370.496,375.926,403.231,408.963z"/>
		<path id="path136_1_" sodipodi:nodetypes="ccccc" fill="#442718" d="M267.428,298.189l-0.925,0.93l0.73,0.611l0.838-1.062
			L267.428,298.189z"/>
		<path id="path584-3_1_" sodipodi:nodetypes="ccccc" fill="#C3652B" d="M271.527,300.747c-3.496,5.704-18.457,36.495-20.998,40.731
			c0.446,0.294,0.872,0.533,1.783,1.019c1.374-2.912,16.662-35.42,19.676-41.534C271.751,300.842,271.699,300.833,271.527,300.747z"
			/>
		<path id="path584-3-6_1_" sodipodi:nodetypes="ccccc" fill="#885234" d="M270.415,300.171c-2.24,3.793-13.609,24.035-15.444,27.73
			c0.306,0.236,1.198,0.741,1.198,0.741c2.27-3.711,12.792-24.497,14.696-28.218C270.703,300.338,270.535,300.242,270.415,300.171
			L270.415,300.171z"/>
		<path id="path136-4_1_" sodipodi:nodetypes="ccccc" fill="#442718" d="M269.183,299.435l-8.222,12.681l1.588,1.037l7.22-13.366
			L269.183,299.435z"/>
		<path id="path136-6_1_" sodipodi:nodetypes="ccccc" fill="#442718" d="M268.299,298.853l-6.982,8.66l1.333,1.031l6.255-9.278
			L268.299,298.853z"/>
	</g>
</g>
<sodipodi:namedview  units="in" borderopacity="1" pagecolor="#ffffff" bordercolor="#666666" objecttolerance="10" gridtolerance="10" guidetolerance="10" inkscape:cx="393.52493" showgrid="false" inkscape:zoom="1.4142136" inkscape:cy="274.09069" id="namedview591" inkscape:pageopacity="0" inkscape:pageshadow="2" inkscape:window-width="1920" inkscape:window-height="976" inkscape:window-x="-8" inkscape:window-y="-8" inkscape:window-maximized="1" inkscape:current-layer="For_Vector_xA0_Image_1_" inkscape:document-rotation="0">
	</sodipodi:namedview>
</svg>
